<svg width="30" height="18" viewBox="0 0 30 18" fill="none" xmlns="http://www.w3.org/2000/svg">
<path d="M0 0C2.37646 0 4.30303 1.79749 4.30303 4.01471V14.2236H12.1068V18C5.4201 18 0 12.9427 0 6.70444V0Z" fill="white"/>
<path d="M12.1068 0C15.5078 0 18.4724 2.15858 19.2985 5.23663L20.0079 7.87987C20.324 9.01257 21.0047 11.9834 21.0047 11.9834H21.0532C21.0532 11.9834 21.7338 9.01257 22.0257 7.87987L24.1655 0C27.3878 0 30 2.43714 30 5.44356V18H26.0615V8.93716C26.0615 8.20703 26.1347 5.33716 26.1347 5.33716H26.0862C26.0862 5.33716 25.4783 8.03067 25.2839 8.68541L23.6433 14.7879C23.1355 16.6759 21.3167 18 19.2303 18L16.7506 8.71054C16.5562 8.05622 15.9482 5.33716 15.9482 5.33716H15.8998C15.8998 5.33716 15.9729 8.23216 15.9729 8.9623V18H12.1072V0H12.1068Z" fill="white"/>
</svg>
